# xmcd CD database file
#
# Track frame offsets:
#	150
#	19575
#	41067
#	58435
#	72004
#	84192
#	97656
#	110758
#	123619
#	139549
#	152366
#	163301
#	174216
#	188606
#
# Disc length: 2678 seconds
#
# Revision: 2
# Processed by: cddbd v1.5.2PL0 Copyright (c) Steve Scherf et al.
# Submitted via: CDex 1.91
#
DISCID=ad0a740e
DTITLE=Ray Charles - RAY CHARLES
DYEAR=1900
DGENRE=Blues
TTITLE0=Track - No01
TTITLE1=Track - No08
TTITLE2=Track - No02
TTITLE3=Track - No03
TTITLE4=Track - No04
TTITLE5=Track - No05
TTITLE6=Track - No13
TTITLE7=Track - No14
TTITLE8=Track - No09
TTITLE9=Track - No07
TTITLE10=Track - No06
TTITLE11=Track - No10
TTITLE12=Track - No11
TTITLE13=Track - No12
EXTD=
EXTT0=
EXTT1=
EXTT2=
EXTT3=
EXTT4=
EXTT5=
EXTT6=
EXTT7=
EXTT8=
EXTT9=
EXTT10=
EXTT11=
EXTT12=
EXTT13=
PLAYORDER=
